# xmcd CD database file
#
# Track frame offsets:
#	150
#	32939
#	57922
#	92463
#	137843
#
# Disc length: 2748 seconds
#
# Revision: 0
# Processed by: cddbd v1.5.1PL0 Copyright (c) Steve Scherf et al.
# Submitted via: CDex 1.50
#
DISCID=3d0aba05
DTITLE=Norris-Paz-Chamy - Colores Extremos
DYEAR=2001
DGENRE=Jazz
TTITLE0=Bemsha Swing
TTITLE1=Out to Lunch
TTITLE2=El Bastonero
TTITLE3=Improvisación # 1
TTITLE4=Colores Extremos
EXTD=YEAR: 2001
EXTT0=
EXTT1=
EXTT2=
EXTT3=
EXTT4=
PLAYORDER=
